<?xml version="1.0" encoding="UTF-8"?>
<!-- Generator: visioncortex VTracer 0.6.12 -->
<svg version="1.1" xmlns="http://www.w3.org/2000/svg" width="512" height="512">
<path d="M0 0 C2.15 -0 4.29 -0.01 6.44 -0.01 C12.23 -0.02 18.03 -0.02 23.82 -0.02 C27.45 -0.02 31.07 -0.02 34.7 -0.03 C47.35 -0.04 60 -0.04 72.66 -0.04 C84.44 -0.04 96.22 -0.05 108 -0.07 C118.14 -0.08 128.27 -0.08 138.41 -0.08 C144.45 -0.08 150.5 -0.09 156.54 -0.1 C162.22 -0.11 167.9 -0.11 173.58 -0.1 C175.66 -0.1 177.74 -0.1 179.82 -0.11 C182.67 -0.11 185.51 -0.11 188.36 -0.1 C189.95 -0.1 191.54 -0.1 193.18 -0.1 C201.54 0.37 206.67 2.04 212.55 8.15 C215.59 13.75 215.92 18.63 215.76 24.86 C215.75 25.89 215.73 26.91 215.72 27.96 C215.69 30.33 215.65 32.7 215.61 35.07 C215.53 40.42 215.49 45.76 215.45 51.1 C215.3 72.34 215.08 93.58 214.87 114.81 C214.75 127.12 214.63 139.43 214.52 151.74 C214.45 160.45 214.36 169.16 214.27 177.88 C214.22 183.06 214.17 188.24 214.13 193.42 C214.09 198.29 214.04 203.15 213.99 208.01 C213.97 209.79 213.95 211.56 213.94 213.34 C213.8 234.41 210.71 251.32 196.11 267.21 C182.15 280.67 165.42 283.61 146.76 283.53 C145.23 283.54 143.71 283.54 142.14 283.55 C138 283.56 133.86 283.56 129.72 283.55 C125.36 283.54 121.01 283.55 116.65 283.55 C109.34 283.56 102.03 283.55 94.72 283.54 C86.3 283.52 77.87 283.53 69.45 283.54 C62.18 283.56 54.92 283.56 47.66 283.55 C43.33 283.54 39.01 283.54 34.68 283.55 C29.86 283.56 25.03 283.55 20.21 283.53 C18.79 283.54 17.38 283.55 15.92 283.55 C-1.31 283.44 -15.96 278.93 -28.51 266.71 C-47.93 246.04 -45.6 220.75 -45.77 194.1 C-45.79 191.32 -45.81 188.54 -45.83 185.75 C-45.89 178.35 -45.94 170.94 -45.99 163.53 C-46.01 158.96 -46.05 154.38 -46.08 149.81 C-46.19 133.31 -46.29 116.8 -46.38 100.3 C-46.43 91.73 -46.48 83.16 -46.54 74.6 C-46.61 65.51 -46.65 56.43 -46.68 47.34 C-46.7 44.23 -46.71 41.12 -46.74 38 C-46.77 33.81 -46.78 29.62 -46.78 25.43 C-46.79 24.24 -46.81 23.06 -46.82 21.84 C-46.8 16.22 -46.76 11.93 -43.45 7.15 C-32.36 -3.25 -14.32 -0 0 0 Z M9.55 52.15 C6.6 56.07 6.17 58.95 6.16 63.81 C6.15 65.16 6.14 66.51 6.13 67.91 C6.13 69.38 6.14 70.86 6.14 72.38 C6.14 73.94 6.13 75.5 6.12 77.11 C6.11 81.38 6.11 85.66 6.11 89.93 C6.11 93.5 6.11 97.07 6.1 100.65 C6.09 109.07 6.09 117.5 6.1 125.92 C6.11 134.61 6.1 143.3 6.07 151.99 C6.05 159.45 6.04 166.91 6.05 174.38 C6.05 178.83 6.05 183.29 6.03 187.74 C6.01 192.71 6.03 197.68 6.05 202.65 C6.04 204.12 6.03 205.6 6.02 207.11 C6.11 219.65 6.11 219.65 10.55 225.15 C14.88 228.13 18.35 228.78 23.55 228.15 C27.59 226.46 29.9 225.19 32.23 221.44 C34.22 214.98 33.97 208.7 33.95 201.97 C33.96 200.44 33.97 198.92 33.97 197.34 C33.99 193.16 33.99 188.98 33.98 184.79 C33.98 181.3 33.99 177.8 33.99 174.3 C34.01 166.05 34.01 157.8 33.99 149.55 C33.98 141.05 34 132.55 34.02 124.05 C34.05 116.74 34.05 109.43 34.05 102.12 C34.04 97.76 34.04 93.4 34.06 89.04 C34.08 84.17 34.07 79.31 34.05 74.45 C34.06 73.01 34.07 71.57 34.08 70.09 C34.02 62.66 33.71 57.4 29.55 51.15 C26.51 48.45 24.74 48.17 20.67 47.71 C15.93 48.21 13.39 49.35 9.55 52.15 Z M73.55 52.15 C70.63 56.11 70.17 58.94 70.16 63.81 C70.15 65.16 70.14 66.51 70.13 67.91 C70.13 69.38 70.14 70.86 70.14 72.38 C70.14 73.94 70.13 75.5 70.12 77.11 C70.11 81.38 70.11 85.66 70.11 89.93 C70.11 93.5 70.11 97.07 70.1 100.65 C70.09 109.07 70.09 117.5 70.1 125.92 C70.11 134.61 70.1 143.3 70.07 151.99 C70.05 159.45 70.04 166.91 70.05 174.38 C70.05 178.83 70.05 183.29 70.03 187.74 C70.01 192.71 70.03 197.68 70.05 202.65 C70.04 204.12 70.03 205.6 70.02 207.11 C70.11 219.64 70.11 219.64 74.55 225.15 C79.13 228.37 83.02 228.75 88.55 228.15 C93.03 225.86 95.35 223.63 97.55 219.15 C97.93 216 97.93 216 97.95 212.4 C97.96 211.03 97.97 209.67 97.99 208.26 C97.99 206.76 97.98 205.27 97.98 203.73 C97.99 202.15 98 200.57 98.01 198.94 C98.04 194.61 98.05 190.28 98.05 185.95 C98.05 183.25 98.06 180.54 98.07 177.84 C98.09 168.4 98.11 158.95 98.1 149.51 C98.1 140.72 98.13 131.92 98.18 123.12 C98.22 115.57 98.24 108.01 98.23 100.45 C98.23 95.94 98.24 91.43 98.27 86.92 C98.31 81.89 98.29 76.86 98.28 71.82 C98.29 70.33 98.31 68.84 98.33 67.3 C98.22 56.05 98.22 56.05 94.69 51.73 C88.08 46.29 79.99 46.47 73.55 52.15 Z M137.55 52.15 C134.91 56.53 134.17 59.77 134.17 64.86 C134.16 65.53 134.16 65.53 134.14 68.92 C134.15 70.37 134.15 71.83 134.16 73.33 C134.15 74.87 134.15 76.41 134.14 78 C134.13 82.22 134.14 86.44 134.14 90.66 C134.15 95.08 134.15 99.51 134.14 103.93 C134.14 111.35 134.14 118.78 134.16 126.2 C134.17 134.78 134.17 143.36 134.15 151.94 C134.14 159.31 134.14 166.68 134.14 174.05 C134.15 178.45 134.15 182.85 134.14 187.25 C134.13 192.15 134.14 197.06 134.16 201.96 C134.15 203.42 134.15 204.88 134.14 206.38 C134.15 207.71 134.16 209.05 134.17 210.43 C134.17 211.59 134.17 212.75 134.17 213.94 C134.83 219.52 137.29 223.55 141.55 227.15 C146.24 228.71 150.07 228.67 154.74 227.02 C158.14 224.75 159.55 222.71 161.55 219.15 C162.05 215.89 162.05 215.89 162.06 212.31 C162.07 210.95 162.08 209.59 162.09 208.18 C162.08 206.7 162.07 205.22 162.07 203.69 C162.07 202.12 162.08 200.55 162.09 198.93 C162.1 194.62 162.1 190.32 162.08 186.02 C162.07 181.52 162.08 177.01 162.09 172.51 C162.1 164.94 162.09 157.37 162.07 149.81 C162.05 141.07 162.05 132.32 162.08 123.58 C162.09 116.07 162.1 108.56 162.09 101.05 C162.08 96.57 162.08 92.08 162.09 87.6 C162.11 82.6 162.09 77.6 162.07 72.6 C162.07 71.12 162.08 69.63 162.09 68.11 C162.08 66.74 162.07 65.38 162.06 63.98 C162.05 62.8 162.05 61.61 162.05 60.4 C161.3 55.57 159.03 52.42 155.36 49.27 C148.69 46.6 142.85 47.35 137.55 52.15 Z " fill="#737887" transform="translate(171.452392578125,185.854736328125)"/>
<path d="M0 0 C1.57 -0 3.14 -0 4.76 -0 C8.91 -0 13.05 0.02 17.19 0.05 C20.55 0.06 23.91 0.05 27.27 0.04 C31.33 0.03 35.38 0.05 39.44 0.06 C40.93 0.06 42.42 0.06 43.96 0.05 C60.94 0.21 74.32 4.16 86.8 16.02 C98.46 28.62 100.73 42.64 100.34 59.31 C100.32 60.78 100.3 62.24 100.28 63.76 C100.23 67.34 100.17 70.92 100.09 74.5 C101.54 74.48 103 74.45 104.5 74.43 C109.95 74.36 115.4 74.31 120.84 74.28 C123.19 74.26 125.54 74.23 127.89 74.19 C131.29 74.15 134.68 74.12 138.07 74.11 C139.11 74.08 140.15 74.06 141.22 74.04 C151.8 74.04 160.51 76.91 168.21 84.27 C174.82 92.1 175.73 101.65 175.09 111.5 C173.68 118.25 171.45 121.76 166.32 126.09 C160.15 129.99 153.97 129.79 146.92 129.77 C145.79 129.78 144.66 129.78 143.49 129.79 C139.71 129.8 135.92 129.8 132.14 129.8 C129.42 129.81 126.71 129.82 123.99 129.83 C116.62 129.85 109.25 129.86 101.87 129.86 C97.27 129.87 92.66 129.87 88.05 129.88 C71.98 129.91 55.91 129.92 39.84 129.92 C24.85 129.93 9.87 129.96 -5.11 130 C-17.97 130.03 -30.83 130.05 -43.7 130.05 C-51.38 130.05 -59.06 130.06 -66.74 130.09 C-73.97 130.11 -81.19 130.11 -88.42 130.1 C-91.07 130.1 -93.72 130.1 -96.37 130.12 C-99.99 130.14 -103.61 130.13 -107.24 130.11 C-107.76 130.12 -107.76 130.12 -110.4 130.15 C-118.63 130.06 -125.5 127.91 -131.41 122 C-136.15 114.1 -136.94 104.76 -135.04 95.81 C-132.44 87.7 -126.42 81.67 -119.16 77.43 C-114.18 75.16 -110.28 74.37 -104.85 74.38 C-103.87 74.38 -102.89 74.38 -101.88 74.38 C-101.35 74.39 -101.35 74.39 -98.71 74.4 C-98.17 74.4 -98.17 74.4 -95.43 74.4 C-91.99 74.41 -88.55 74.42 -85.1 74.43 C-82.76 74.44 -80.43 74.44 -78.09 74.45 C-72.36 74.46 -66.64 74.48 -60.91 74.5 C-60.93 73.65 -60.95 72.8 -60.96 71.93 C-61.02 68.04 -61.06 64.14 -61.1 60.25 C-61.13 58.92 -61.15 57.59 -61.18 56.21 C-61.3 40.13 -57.54 26.53 -46.29 14.63 C-32.83 2.56 -17.55 -0.13 0 0 Z M-22.91 46.5 C-22.91 55.74 -22.91 64.98 -22.91 74.5 C5.14 74.5 33.19 74.5 62.09 74.5 C63.58 70.01 63.35 65.49 63.4 60.81 C63.43 59.84 63.46 58.87 63.49 57.87 C63.54 51.46 62.79 46.97 59.09 41.5 C54.73 38.79 51.42 38.12 46.33 38.11 C45.01 38.1 43.68 38.09 42.32 38.08 C40.9 38.09 39.48 38.09 38.02 38.1 C36.55 38.09 35.09 38.09 33.57 38.09 C30.48 38.09 27.38 38.09 24.28 38.1 C19.54 38.12 14.79 38.11 10.05 38.09 C7.04 38.09 4.03 38.09 1.02 38.1 C0.31 38.09 0.31 38.09 -3.29 38.08 C-4.61 38.09 -5.93 38.1 -7.29 38.11 C-8.45 38.11 -9.61 38.11 -10.81 38.12 C-17.03 38.88 -19 41.6 -22.91 46.5 Z " fill="#737887" transform="translate(235.9140625,42.50390625)"/>
</svg>
